# xmcd
#
# Track frame offsets:
# 150
# 17462
# 28602
# 44277
# 61240
# 74973
# 87739
# 99077
# 113494
# 127335
# 149600
# 171310
# 185611
# 198853
#
# Disc length: 2757 seconds
#
# Revision: 0
# Processed by: cddbd v1.5.2PL0 Copyright (c) Steve Scherf et al.
# Submitted via: Audion 3.0.2 (http://www.panic.com/audion/)
#
DISCID=cc0ac30e
DTITLE=supermilk - elekidance
DYEAR=1900
DGENRE=
TTITLE0=sayounara
TTITLE1=a
TTITLE2=s
TTITLE3=otona(punk ni seppou)
TTITLE4=m
TTITLE5=m
TTITLE6=vb
TTITLE7=n
TTITLE8=m
TTITLE9=n
TTITLE10=m
TTITLE11=,
TTITLE12=l
TTITLE13=;
EXTD=
EXTT0=
EXTT1=
EXTT2=
EXTT3=
EXTT4=
EXTT5=
EXTT6=
EXTT7=
EXTT8=
EXTT9=
EXTT10=
EXTT11=
EXTT12=
EXTT13=
PLAYORDER=
